<svg xmlns="http://www.w3.org/2000/svg" viewBox="0 0 1200 400" fill="none">
  <!-- Background Layer - Furthest trees (lightest) -->
  <g opacity="0.4">
    <rect x="80" y="310" width="12" height="90" fill="rgba(0, 0, 0, 0.3)"/>
    <polygon points="86,60 40,150 60,150 25,230 55,230 35,310 137,310 117,230 147,230 112,150 132,150" fill="rgba(0, 0, 0, 0.3)"/>
    
    <rect x="320" y="325" width="12" height="75" fill="rgba(0, 0, 0, 0.3)"/>
    <polygon points="326,120 285,195 305,195 275,260 300,260 285,325 367,325 352,260 377,260 347,195 367,195" fill="rgba(0, 0, 0, 0.3)"/>
    
    <rect x="560" y="315" width="12" height="85" fill="rgba(0, 0, 0, 0.3)"/>
    <polygon points="566,80 520,165 540,165 505,240 535,240 515,315 617,315 597,240 627,240 592,165 612,165" fill="rgba(0, 0, 0, 0.3)"/>
    
    <rect x="800" y="320" width="12" height="80" fill="rgba(0, 0, 0, 0.3)"/>
    <polygon points="806,100 765,180 785,180 755,250 780,250 765,320 847,320 832,250 857,250 827,180 847,180" fill="rgba(0, 0, 0, 0.3)"/>
    
    <rect x="1040" y="330" width="12" height="70" fill="rgba(0, 0, 0, 0.3)"/>
    <polygon points="1046,140 1010,210 1028,210 1003,270 1023,270 1010,330 1082,330 1069,270 1089,270 1064,210 1082,210" fill="rgba(0, 0, 0, 0.3)"/>
  </g>
  
  <!-- Middle Layer - Medium distance (medium opacity) -->
  <g opacity="0.6">
    <rect x="180" y="305" width="14" height="95" fill="rgba(0, 0, 0, 0.4)"/>
    <polygon points="187,45 135,140 160,140 115,225 150,225 125,305 249,305 224,225 259,225 214,140 239,140" fill="rgba(0, 0, 0, 0.4)"/>
    
    <rect x="410" y="315" width="14" height="85" fill="rgba(0, 0, 0, 0.4)"/>
    <polygon points="417,85 370,170 392,170 355,245 385,245 365,315 469,315 449,245 479,245 442,170 464,170" fill="rgba(0, 0, 0, 0.4)"/>
    
    <rect x="650" y="300" width="14" height="100" fill="rgba(0, 0, 0, 0.4)"/>
    <polygon points="657,50 605,145 630,145 585,230 620,230 595,300 719,300 694,230 729,230 684,145 709,145" fill="rgba(0, 0, 0, 0.4)"/>
    
    <rect x="890" y="310" width="14" height="90" fill="rgba(0, 0, 0, 0.4)"/>
    <polygon points="897,70 850,160 872,160 840,235 870,235 850,310 944,310 924,235 954,235 922,160 944,160" fill="rgba(0, 0, 0, 0.4)"/>
    
    <rect x="1130" y="318" width="14" height="82" fill="rgba(0, 0, 0, 0.4)"/>
    <polygon points="1137,95 1095,175 1115,175 1088,245 1113,245 1095,318 1179,318 1161,245 1186,245 1159,175 1179,175" fill="rgba(0, 0, 0, 0.4)"/>
  </g>
  
  <!-- Foreground Layer - Closest trees (darkest) -->
  <g opacity="0.85">
    <rect x="30" y="315" width="16" height="85" fill="rgba(0, 0, 0, 0.5)"/>
    <polygon points="38,90 -15,185 10,185 -20,260 15,260 -10,315 86,315 61,260 96,260 61,185 86,185" fill="rgba(0, 0, 0, 0.5)"/>
    
    <rect x="260" y="300" width="16" height="100" fill="rgba(0, 0, 0, 0.5)"/>
    <polygon points="268,50 210,150 238,150 195,235 235,235 208,300 328,300 301,235 341,235 298,150 326,150" fill="rgba(0, 0, 0, 0.5)"/>
    
    <rect x="490" y="295" width="16" height="105" fill="rgba(0, 0, 0, 0.5)"/>
    <polygon points="498,35 435,140 465,140 415,230 455,230 425,295 571,295 541,230 581,230 531,140 561,140" fill="rgba(0, 0, 0, 0.5)"/>
    
    <rect x="730" y="308" width="16" height="92" fill="rgba(0, 0, 0, 0.5)"/>
    <polygon points="738,75 685,165 710,165 670,245 705,245 680,308 796,308 771,245 806,245 766,165 791,165" fill="rgba(0, 0, 0, 0.5)"/>
    
    <rect x="970" y="305" width="16" height="95" fill="rgba(0, 0, 0, 0.5)"/>
    <polygon points="978,55 920,155 948,155 905,240 943,240 918,305 1038,305 1013,240 1051,240 1008,155 1036,155" fill="rgba(0, 0, 0, 0.5)"/>
    
    <rect x="1160" y="312" width="16" height="88" fill="rgba(0, 0, 0, 0.5)"/>
    <polygon points="1168,80 1120,165 1143,165 1110,240 1143,240 1120,312 1216,312 1193,240 1226,240 1193,165 1216,165" fill="rgba(0, 0, 0, 0.5)"/>
  </g>
</svg>
